<svg width="28" height="28" viewBox="0 0 28 28" fill="none" xmlns="http://www.w3.org/2000/svg">
<mask id="mask0_512_289" style="mask-type:alpha" maskUnits="userSpaceOnUse" x="0" y="0" width="28" height="28">
<rect width="28" height="28" fill="#B2B2BD"/>
</mask>
<g mask="url(#mask0_512_289)">
<path d="M16.5127 14.5381H21.2692V13.3714H16.5127V14.5381ZM16.5127 11.3073H21.2692V10.1406H16.5127V11.3073ZM6.73079 17.8587H14.4486V17.6656C14.4486 16.9851 14.1068 16.4582 13.4234 16.0851C12.7399 15.712 11.7954 15.5254 10.5898 15.5254C9.38428 15.5254 8.43967 15.712 7.756 16.0851C7.07253 16.4582 6.73079 16.9851 6.73079 17.6656V17.8587ZM10.5898 13.6406C11.0818 13.6406 11.4964 13.4721 11.8338 13.1349C12.1712 12.7975 12.3398 12.3828 12.3398 11.8906C12.3398 11.3985 12.1712 10.9838 11.8338 10.6467C11.4964 10.3093 11.0818 10.1406 10.5898 10.1406C10.0977 10.1406 9.68294 10.3093 9.34558 10.6467C9.00842 10.9838 8.83983 11.3985 8.83983 11.8906C8.83983 12.3828 9.00842 12.7975 9.34558 13.1349C9.68294 13.4721 10.0977 13.6406 10.5898 13.6406ZM5.38475 22.1663C4.84769 22.1663 4.39931 21.9865 4.03958 21.6268C3.67986 21.267 3.5 20.8186 3.5 20.2816V7.71776C3.5 7.1807 3.67986 6.73231 4.03958 6.37259C4.39931 6.01287 4.84769 5.83301 5.38475 5.83301H22.6152C23.1523 5.83301 23.6007 6.01287 23.9604 6.37259C24.3201 6.73231 24.5 7.1807 24.5 7.71776V20.2816C24.5 20.8186 24.3201 21.267 23.9604 21.6268C23.6007 21.9865 23.1523 22.1663 22.6152 22.1663H5.38475ZM5.38475 20.9997H22.6152C22.7949 20.9997 22.9595 20.9249 23.109 20.7754C23.2586 20.6259 23.3333 20.4613 23.3333 20.2816V7.71776C23.3333 7.53809 23.2586 7.37349 23.109 7.22397C22.9595 7.07444 22.7949 6.99967 22.6152 6.99967H5.38475C5.20508 6.99967 5.04049 7.07444 4.89096 7.22397C4.74143 7.37349 4.66667 7.53809 4.66667 7.71776V20.2816C4.66667 20.4613 4.74143 20.6259 4.89096 20.7754C5.04049 20.9249 5.20508 20.9997 5.38475 20.9997Z" fill="#B2B2BD"/>
</g>
</svg>
