<svg width="28" height="28" viewBox="0 0 28 28" fill="none" xmlns="http://www.w3.org/2000/svg">
<mask id="mask0_512_283" style="mask-type:alpha" maskUnits="userSpaceOnUse" x="0" y="0" width="28" height="28">
<rect width="28" height="28" fill="#D9D9D9"/>
</mask>
<g mask="url(#mask0_512_283)">
<path d="M9.51271 18.4873L16.2884 16.2884L18.4873 9.51271L11.7116 11.7116L9.51271 18.4873ZM13.9948 15.3014C13.6317 15.3014 13.325 15.1743 13.0745 14.9202C12.8239 14.6661 12.6986 14.3576 12.6986 13.9948C12.6986 13.6317 12.8257 13.325 13.0798 13.0745C13.3339 12.8239 13.6424 12.6986 14.0052 12.6986C14.3683 12.6986 14.675 12.8257 14.9255 13.0798C15.1761 13.3339 15.3014 13.6424 15.3014 14.0052C15.3014 14.3683 15.1743 14.675 14.9202 14.9255C14.6661 15.1761 14.3576 15.3014 13.9948 15.3014ZM14.0038 24.5C12.5519 24.5 11.1868 24.2245 9.9085 23.6734C8.63042 23.1224 7.51858 22.3745 6.573 21.4299C5.62742 20.4853 4.8789 19.3744 4.32746 18.0973C3.77582 16.8204 3.5 15.4559 3.5 14.0038C3.5 12.5519 3.77553 11.1868 4.32658 9.9085C4.87764 8.63042 5.62547 7.51858 6.57008 6.573C7.51469 5.62742 8.62556 4.8789 9.90267 4.32746C11.1796 3.77582 12.5441 3.5 13.9962 3.5C15.4481 3.5 16.8132 3.77553 18.0915 4.32658C19.3696 4.87764 20.4814 5.62547 21.427 6.57008C22.3726 7.51469 23.1211 8.62556 23.6725 9.90267C24.2242 11.1796 24.5 12.5441 24.5 13.9962C24.5 15.4481 24.2245 16.8132 23.6734 18.0915C23.1224 19.3696 22.3745 20.4814 21.4299 21.427C20.4853 22.3726 19.3744 23.1211 18.0973 23.6725C16.8204 24.2242 15.4559 24.5 14.0038 24.5ZM14 23.3333C16.6011 23.3333 18.8069 22.428 20.6173 20.6173C22.428 18.8069 23.3333 16.6011 23.3333 14C23.3333 11.3989 22.428 9.19314 20.6173 7.38267C18.8069 5.572 16.6011 4.66667 14 4.66667C11.3989 4.66667 9.19314 5.572 7.38267 7.38267C5.572 9.19314 4.66667 11.3989 4.66667 14C4.66667 16.6011 5.572 18.8069 7.38267 20.6173C9.19314 22.428 11.3989 23.3333 14 23.3333Z" fill="white"/>
</g>
</svg>
