<svg width="25" height="24" viewBox="0 0 25 24" fill="none" xmlns="http://www.w3.org/2000/svg">
<g id="ios_share">
<mask id="mask0_80_432" style="mask-type:alpha" maskUnits="userSpaceOnUse" x="0" y="0" width="25" height="24">
<rect id="Bounding box" x="0.276733" width="24" height="24" fill="#D9D9D9"/>
</mask>
<g mask="url(#mask0_80_432)">
<path id="ios_share_2" d="M6.12302 21C5.59692 21 5.15769 20.8323 4.8053 20.497C4.45292 20.1616 4.27673 19.7436 4.27673 19.2429V8.61769C4.27673 8.11701 4.45292 7.69899 4.8053 7.36364C5.15769 7.02828 5.59692 6.8606 6.12302 6.8606H8.54045V7.94825H6.12302C5.94702 7.94825 5.78578 8.01795 5.6393 8.15735C5.49283 8.29675 5.41959 8.45019 5.41959 8.61769V19.2429C5.41959 19.4104 5.49283 19.5639 5.6393 19.7033C5.78578 19.8427 5.94702 19.9124 6.12302 19.9124H18.4304C18.6064 19.9124 18.7677 19.8427 18.9142 19.7033C19.0606 19.5639 19.1339 19.4104 19.1339 19.2429V8.61769C19.1339 8.45019 19.0606 8.29675 18.9142 8.15735C18.7677 8.01795 18.6064 7.94825 18.4304 7.94825H16.013V6.8606H18.4304C18.9565 6.8606 19.3958 7.02828 19.7482 7.36364C20.1005 7.69899 20.2767 8.11701 20.2767 8.61769V19.2429C20.2767 19.7436 20.1005 20.1616 19.7482 20.497C19.3958 20.8323 18.9565 21 18.4304 21H6.12302ZM11.7053 13.9303V2.08964L9.30531 4.3737L8.49645 3.59766L12.2767 0L16.057 3.59766L15.2482 4.3737L12.8482 2.08964V13.9303H11.7053Z" fill="black"/>
</g>
</g>
</svg>
