<svg width="33" height="32" viewBox="0 0 33 32" fill="none" xmlns="http://www.w3.org/2000/svg">
<mask id="mask0_71_198" style="mask-type:alpha" maskUnits="userSpaceOnUse" x="0" y="0" width="33" height="32">
<rect x="0.276733" width="32" height="32" fill="#D9D9D9"/>
</mask>
<g mask="url(#mask0_71_198)">
<path fill-rule="evenodd" clip-rule="evenodd" d="M6.43073 25.6667C5.83407 25.6667 5.32584 25.4569 4.90607 25.0373C4.48651 24.6176 4.27673 24.1093 4.27673 23.5127V20.077C5.0614 19.7863 5.70196 19.303 6.1984 18.627C6.69507 17.9508 6.9434 17.1862 6.9434 16.3333C6.9434 15.4804 6.69507 14.7159 6.1984 14.0397C5.70196 13.3637 5.0614 12.8803 4.27673 12.5897V9.154C4.27673 8.55733 4.48651 8.04911 4.90607 7.62933C5.32584 7.20978 5.83407 7 6.43073 7H26.1227C26.7194 7 27.2276 7.20978 27.6474 7.62933C28.067 8.04911 28.2767 8.55733 28.2767 9.154V12.5897C27.4921 12.8803 26.8515 13.3637 26.3551 14.0397C25.8584 14.7159 25.6101 15.4804 25.6101 16.3333C25.6101 17.1862 25.8584 17.9508 26.3551 18.627C26.8515 19.303 27.4921 19.7863 28.2767 20.077V23.5127C28.2767 24.1093 28.067 24.6176 27.6474 25.0373C27.2276 25.4569 26.7194 25.6667 26.1227 25.6667H6.43073ZM26.1227 24.3333C26.3621 24.3333 26.5587 24.2564 26.7127 24.1027C26.8665 23.9487 26.9434 23.752 26.9434 23.5127V20.9333C26.1212 20.4444 25.4712 19.7944 24.9934 18.9833C24.5156 18.1722 24.2767 17.2889 24.2767 16.3333C24.2767 15.3778 24.5156 14.4944 24.9934 13.6833C25.4712 12.8722 26.1212 12.2222 26.9434 11.7333V9.154C26.9434 8.91467 26.8665 8.718 26.7127 8.564C26.5587 8.41022 26.3621 8.33333 26.1227 8.33333H6.43073C6.1914 8.33333 5.99473 8.41022 5.84073 8.564C5.68696 8.718 5.61007 8.91467 5.61007 9.154V11.7333C6.43229 12.2222 7.08229 12.8722 7.56007 13.6833C8.03784 14.4944 8.27673 15.3778 8.27673 16.3333C8.27673 17.2889 8.03784 18.1722 7.56007 18.9833C7.08229 19.7944 6.43229 20.4444 5.61007 20.9333V23.5127C5.61007 23.752 5.68696 23.9487 5.84073 24.1027C5.99473 24.2564 6.1914 24.3333 6.43073 24.3333H26.1227Z" fill="#F3295B"/>
</g>
</svg>
