<svg width="29" height="28" viewBox="0 0 29 28" fill="none" xmlns="http://www.w3.org/2000/svg">
<mask id="mask0_158_136" style="mask-type:alpha" maskUnits="userSpaceOnUse" x="0" y="0" width="29" height="28">
<rect x="0.625" width="28" height="28" fill="#D9D9D9"/>
</mask>
<g mask="url(#mask0_158_136)">
<path d="M14.6259 19.0257C14.7913 19.0257 14.9298 18.9697 15.0412 18.8577C15.1526 18.7457 15.2083 18.607 15.2083 18.4415C15.2083 18.276 15.1523 18.1376 15.0403 18.0262C14.9283 17.9148 14.7896 17.8591 14.6241 17.8591C14.4587 17.8591 14.3202 17.9151 14.2088 18.0271C14.0974 18.1389 14.0417 18.2775 14.0417 18.443C14.0417 18.6086 14.0977 18.7472 14.2097 18.8586C14.3217 18.97 14.4604 19.0257 14.6259 19.0257ZM14.6259 14.5833C14.7913 14.5833 14.9298 14.5273 15.0412 14.4153C15.1526 14.3033 15.2083 14.1646 15.2083 13.9991C15.2083 13.8337 15.1523 13.6952 15.0403 13.5838C14.9283 13.4724 14.7896 13.4167 14.6241 13.4167C14.4587 13.4167 14.3202 13.4727 14.2088 13.5847C14.0974 13.6967 14.0417 13.8354 14.0417 14.0009C14.0417 14.1664 14.0977 14.3048 14.2097 14.4162C14.3217 14.5276 14.4604 14.5833 14.6259 14.5833ZM14.6259 10.141C14.7913 10.141 14.9298 10.085 15.0412 9.97297C15.1526 9.86116 15.2083 9.72252 15.2083 9.55705C15.2083 9.39138 15.1523 9.25284 15.0403 9.14143C14.9283 9.03001 14.7896 8.9743 14.6241 8.9743C14.4587 8.9743 14.3202 9.0303 14.2088 9.1423C14.0974 9.2543 14.0417 9.39304 14.0417 9.55851C14.0417 9.72398 14.0977 9.86243 14.2097 9.97384C14.3217 10.0853 14.4604 10.141 14.6259 10.141ZM23.2402 22.1667H6.00975C5.49136 22.1667 5.04764 21.9822 4.67858 21.6131C4.30953 21.244 4.125 20.8003 4.125 20.2819V17.2757C4.81158 17.0214 5.37207 16.5985 5.80646 16.007C6.24104 15.4153 6.45833 14.7463 6.45833 14C6.45833 13.2537 6.24104 12.5847 5.80646 11.9931C5.37207 11.4016 4.81158 10.9786 4.125 10.7243V7.71809C4.125 7.1997 4.30953 6.75598 4.67858 6.38693C5.04764 6.01787 5.49136 5.83334 6.00975 5.83334H23.2402C23.7586 5.83334 24.2024 6.01787 24.5714 6.38693C24.9405 6.75598 25.125 7.1997 25.125 7.71809V10.7243C24.4384 10.9786 23.8779 11.4016 23.4435 11.9931C23.009 12.5847 22.7917 13.2537 22.7917 14C22.7917 14.7463 23.009 15.4153 23.4435 16.007C23.8779 16.5985 24.4384 17.0214 25.125 17.2757V20.2819C25.125 20.8003 24.9405 21.244 24.5714 21.6131C24.2024 21.9822 23.7586 22.1667 23.2402 22.1667ZM23.2402 21C23.4497 21 23.6218 20.9327 23.7565 20.7982C23.8911 20.6634 23.9583 20.4913 23.9583 20.2819V18.025C23.2389 17.5972 22.6701 17.0285 22.2521 16.3188C21.834 15.609 21.625 14.8361 21.625 14C21.625 13.1639 21.834 12.391 22.2521 11.6813C22.6701 10.9715 23.2389 10.4028 23.9583 9.97501V7.71809C23.9583 7.50868 23.8911 7.33659 23.7565 7.20184C23.6218 7.06729 23.4497 7.00001 23.2402 7.00001H6.00975C5.80033 7.00001 5.62825 7.06729 5.4935 7.20184C5.35894 7.33659 5.29167 7.50868 5.29167 7.71809V9.97501C6.01111 10.4028 6.57986 10.9715 6.99792 11.6813C7.41597 12.391 7.625 13.1639 7.625 14C7.625 14.8361 7.41597 15.609 6.99792 16.3188C6.57986 17.0285 6.01111 17.5972 5.29167 18.025V20.2819C5.29167 20.4913 5.35894 20.6634 5.4935 20.7982C5.62825 20.9327 5.80033 21 6.00975 21H23.2402Z" fill="black"/>
</g>
</svg>
